HIERARCHY
ROOT Hips
{
	OFFSET -14.64140 90.27770 -84.91600
	CHANNELS 6 Xposition Yposition Zposition Zrotation Xrotation Yrotation
	JOINT Spine
	{
		OFFSET 0.00000 13.20850 -1.60436
		CHANNELS 3 Zrotation Xrotation Yrotation
		JOINT Spine1
		{
			OFFSET 0.00000 8.61716 0.00000
			CHANNELS 3 Zrotation Xrotation Yrotation
			JOINT Spine2
			{
				OFFSET 0.00000 8.61717 0.00000
				CHANNELS 3 Zrotation Xrotation Yrotation
				JOINT Spine3
				{
					OFFSET 0.00000 8.61717 0.00000
					CHANNELS 3 Zrotation Xrotation Yrotation
					JOINT Neck
					{
						OFFSET 0.00000 11.07920 1.10792
						CHANNELS 3 Zrotation Xrotation Yrotation
						JOINT Neck1
						{
							OFFSET 0.00000 7.08032 0.00000
							CHANNELS 3 Zrotation Xrotation Yrotation
							JOINT Head
							{
								OFFSET 0.00000 7.08031 0.00000
								CHANNELS 3 Zrotation Xrotation Yrotation
								End site
								{
									OFFSET 0.00000 0.00000 0.00000
								}
							}
						}
					}
					JOINT RightShoulder
					{
						OFFSET -0.01000 7.91373 5.19711
						CHANNELS 3 Zrotation Xrotation Yrotation
						JOINT RightArm
						{
							OFFSET -18.41580 0.00000 0.00000
							CHANNELS 3 Zrotation Xrotation Yrotation
							JOINT RightForeArm
							{
								OFFSET -29.11090 0.00000 0.00000
								CHANNELS 3 Zrotation Xrotation Yrotation
								JOINT RightHand
								{
									OFFSET -24.65040 0.00000 0.00000
									CHANNELS 3 Zrotation Xrotation Yrotation
									JOINT RightHandThumb1
									{
										OFFSET -5.35114 -0.85590 3.97906
										CHANNELS 3 Zrotation Xrotation Yrotation
										JOINT RightHandThumb2
										{
											OFFSET -4.52789 0.00000 0.00000
											CHANNELS 3 Zrotation Xrotation Yrotation
											JOINT RightHandThumb3
											{
												OFFSET -2.46976 0.00000 0.00000
												CHANNELS 3 Zrotation Xrotation Yrotation
												End site
												{
													OFFSET 0.00000 0.00000 0.00000
												}
											}
										}
									}
									JOINT RightHandIndex1
									{
										OFFSET -14.26970 0.00000 2.88139
										CHANNELS 3 Zrotation Xrotation Yrotation
										JOINT RightHandIndex2
										{
											OFFSET -5.48836 0.00000 0.00000
											CHANNELS 3 Zrotation Xrotation Yrotation
											JOINT RightHandIndex3
											{
												OFFSET -3.01859 0.00000 0.00000
												CHANNELS 3 Zrotation Xrotation Yrotation
												End site
												{
													OFFSET 0.00000 0.00000 0.00000
												}
											}
										}
									}
									JOINT RightHandMiddle1
									{
										OFFSET -14.26970 0.00000 -0.09147
										CHANNELS 3 Zrotation Xrotation Yrotation
										JOINT RightHandMiddle2
										{
											OFFSET -6.17441 0.00000 0.00000
											CHANNELS 3 Zrotation Xrotation Yrotation
											JOINT RightHandMiddle3
											{
												OFFSET -3.56743 0.00000 0.00000
												CHANNELS 3 Zrotation Xrotation Yrotation
												End site
												{
													OFFSET 0.00000 0.00000 0.00000
												}
											}
										}
									}
									JOINT RightHandRing1
									{
										OFFSET -12.69180 0.00000 -3.06433
										CHANNELS 3 Zrotation Xrotation Yrotation
										JOINT RightHandRing2
										{
											OFFSET -5.62556 0.00000 0.00000
											CHANNELS 3 Zrotation Xrotation Yrotation
											JOINT RightHandRing3
											{
												OFFSET -3.56744 0.00000 0.00000
												CHANNELS 3 Zrotation Xrotation Yrotation
												End site
												{
													OFFSET 0.00000 0.00000 0.00000
												}
											}
										}
									}
									JOINT RightHandPinky1
									{
										OFFSET -11.11390 0.00000 -6.03719
										CHANNELS 3 Zrotation Xrotation Yrotation
										JOINT RightHandPinky2
										{
											OFFSET -4.52789 0.00000 0.00000
											CHANNELS 3 Zrotation Xrotation Yrotation
											JOINT RightHandPinky3
											{
												OFFSET -2.46976 0.00000 0.00000
												CHANNELS 3 Zrotation Xrotation Yrotation
												End site
												{
													OFFSET 0.00000 0.00000 0.00000
												}
											}
										}
									}
								}
							}
						}
					}
					JOINT LeftShoulder
					{
						OFFSET 0.01000 7.91373 5.19711
						CHANNELS 3 Zrotation Xrotation Yrotation
						JOINT LeftArm
						{
							OFFSET 18.41580 0.00000 0.00000
							CHANNELS 3 Zrotation Xrotation Yrotation
							JOINT LeftForeArm
							{
								OFFSET 29.11090 0.00000 0.00000
								CHANNELS 3 Zrotation Xrotation Yrotation
								JOINT LeftHand
								{
									OFFSET 24.65040 0.00000 0.00000
									CHANNELS 3 Zrotation Xrotation Yrotation
									JOINT LeftHandThumb1
									{
										OFFSET 5.35114 -0.85590 3.97906
										CHANNELS 3 Zrotation Xrotation Yrotation
										JOINT LeftHandThumb2
										{
											OFFSET 4.52789 0.00000 0.00000
											CHANNELS 3 Zrotation Xrotation Yrotation
											JOINT LeftHandThumb3
											{
												OFFSET 2.46977 0.00000 0.00000
												CHANNELS 3 Zrotation Xrotation Yrotation
												End site
												{
													OFFSET 0.00000 0.00000 0.00000
												}
											}
										}
									}
									JOINT LeftHandIndex1
									{
										OFFSET 14.26970 0.00000 2.88139
										CHANNELS 3 Zrotation Xrotation Yrotation
										JOINT LeftHandIndex2
										{
											OFFSET 5.48836 0.00000 0.00000
											CHANNELS 3 Zrotation Xrotation Yrotation
											JOINT LeftHandIndex3
											{
												OFFSET 3.01859 0.00000 0.00000
												CHANNELS 3 Zrotation Xrotation Yrotation
												End site
												{
													OFFSET 0.00000 0.00000 0.00000
												}
											}
										}
									}
									JOINT LeftHandMiddle1
									{
										OFFSET 14.26970 0.00000 -0.09147
										CHANNELS 3 Zrotation Xrotation Yrotation
										JOINT LeftHandMiddle2
										{
											OFFSET 6.17440 0.00000 0.00000
											CHANNELS 3 Zrotation Xrotation Yrotation
											JOINT LeftHandMiddle3
											{
												OFFSET 3.56744 0.00000 0.00000
												CHANNELS 3 Zrotation Xrotation Yrotation
												End site
												{
													OFFSET 0.00000 0.00000 0.00000
												}
											}
										}
									}
									JOINT LeftHandRing1
									{
										OFFSET 12.69180 0.00000 -3.06433
										CHANNELS 3 Zrotation Xrotation Yrotation
										JOINT LeftHandRing2
										{
											OFFSET 5.62556 0.00000 0.00000
											CHANNELS 3 Zrotation Xrotation Yrotation
											JOINT LeftHandRing3
											{
												OFFSET 3.56744 0.00000 0.00000
												CHANNELS 3 Zrotation Xrotation Yrotation
												End site
												{
													OFFSET 0.00000 0.00000 0.00000
												}
											}
										}
									}
									JOINT LeftHandPinky1
									{
										OFFSET 11.11390 0.00000 -6.03719
										CHANNELS 3 Zrotation Xrotation Yrotation
										JOINT LeftHandPinky2
										{
											OFFSET 4.52789 0.00000 0.00000
											CHANNELS 3 Zrotation Xrotation Yrotation
											JOINT LeftHandPinky3
											{
												OFFSET 2.46976 0.00000 0.00000
												CHANNELS 3 Zrotation Xrotation Yrotation
												End site
												{
													OFFSET 0.00000 0.00000 0.00000
												}
											}
										}
									}
								}
							}
						}
					}
					JOINT pCube4
					{
						OFFSET 0.00000 10.91090 1.10792
						CHANNELS 3 Zrotation Xrotation Yrotation
						End site
						{
							OFFSET 0.00000 0.00000 0.00000
						}
					}
				}
			}
		}
	}
	JOINT RightUpLeg
	{
		OFFSET -9.98441 0.00000 0.00000
		CHANNELS 3 Zrotation Xrotation Yrotation
		JOINT RightLeg
		{
			OFFSET 0.00000 -42.11790 0.00000
			CHANNELS 3 Zrotation Xrotation Yrotation
			JOINT RightFoot
			{
				OFFSET 0.00000 -45.00020 -0.00001
				CHANNELS 3 Zrotation Xrotation Yrotation
				JOINT RightForeFoot
				{
					OFFSET 0.00000 -3.74820 0.00000
					CHANNELS 3 Zrotation Xrotation Yrotation
					JOINT RightToeBase
					{
						OFFSET 0.00000 0.06325 14.43120
						CHANNELS 3 Zrotation Xrotation Yrotation
						End site
						{
							OFFSET 0.00000 0.00000 0.00000
						}
					}
				}
			}
		}
	}
	JOINT LeftUpLeg
	{
		OFFSET 9.98441 0.00000 0.00000
		CHANNELS 3 Zrotation Xrotation Yrotation
		JOINT LeftLeg
		{
			OFFSET 0.00000 -42.11800 0.00000
			CHANNELS 3 Zrotation Xrotation Yrotation
			JOINT LeftFoot
			{
				OFFSET 0.00000 -45.00070 0.00000
				CHANNELS 3 Zrotation Xrotation Yrotation
				JOINT LeftForeFoot
				{
					OFFSET 0.00000 -3.74824 0.00000
					CHANNELS 3 Zrotation Xrotation Yrotation
					JOINT LeftToeBase
					{
						OFFSET 0.00000 0.06325 14.43110
						CHANNELS 3 Zrotation Xrotation Yrotation
						End site
						{
							OFFSET 0.00000 0.00000 0.00000
						}
					}
				}
			}
		}
	}
}
MOTION
Frames: 4
Frame Time: 0.050000
0.006408339478732452 0.014098933874243602 -0.04572972359879704 0.01344340010251572 -0.045759156604336076 0.01396193940841453 6.284957037264645 1.609938412213748 -2.495643111058276 -0.7286995291955631 3.4630524973161347 0.37783226326001584 -0.48426432962667737 -1.2602396506929434 1.6487946246571825 -0.23771233550209545 -0.4442289763475946 -0.11225039584392263 0.21432075434707917 12.756737349882199 -1.7933828339755755 0.32119138075839687 0.02285406922679479 -4.392929708235961 1.0672023170752547 -16.227289607455305 -0.41435372387671876 -10.817330514987917 3.709054012886451 -17.126373085840243 79.6490357545896 13.562580215743795 20.559496172432564 0.798923101474154 -3.0229546676522734 111.6142355813402 4.251815435549373 0.1705736691411035 1.7339027186443445 4.538136377438319 -0.17349761472195158 -1.570218189659017 -0.013690072956099785 -0.006335819895117099 -56.27044523052501 0.046370924651679586 -0.018887585775874835 -56.22360416587527 -38.76974171494784 0.0020673676943625263 0.04097613665989577 -0.002704963567868126 -0.02684014684049993 0.015463468778036877 0.01608275381313914 0.002195489121241934 0.009660387408370202 -36.70674432762734 -0.04047613265735296 -0.04129962985966155 -0.013865073474601603 -0.0029665099296502847 0.0005571154858816337 0.0020178637614021834 -0.030841963639367094 0.034483985456106626 -19.718328399130172 0.00875044411721384 0.015950527544134566 0.028917235483859164 0.03527609932110614 0.016256143858762145 -0.040304819222945536 -0.024508035916936215 0.0389978440723623 24.060703432802462 -0.004870047264698373 0.016566178918903524 28.87291065653083 -0.009351710712146634 -0.047347646725228815 28.86274828579085 0.0014238880881271402 -0.04501856178483257 10.94645666012748 2.4949480415253418 14.836075351108487 -73.28197172586952 23.996163364354626 -18.770576434528937 6.918947694218408 -7.707656190542904 -101.54009593067464 -5.835479307835456 -4.9218396933431166 -2.1370685360108443 -0.46798035036589664 0.10868462921941435 -8.153659715438957 0.0032537121356129733 0.00217485098072809 44.56539418953314 -0.02075217757944266 0.00806336691877444 44.53755564441311 12.481154976164625 0.027052519779498196 -0.016210201934730162 0.0066021646104197 -0.02797906571291582 0.006513895940755556 0.00529549356896816 0.0469781044463306 0.0023216884635768767 11.127907507544423 -0.03587884769877999 -0.04665319394060707 -0.004816792687881187 0.011673670866013352 -0.030969738251089927 0.029847296594237134 -0.01033270041735329 -0.04927333908939879 4.768392013478937 0.03159937595204646 0.015430883628603656 0.021429796039216093 0.02140727807359776 0.041295990895846485 -0.01131896423681442 -0.03573234990828138 -0.007479868210356891 -5.621097982500773 -0.02346809607596981 -0.038810004875875645 -6.755024210309744 -0.04665334823209775 -0.025602639584523246 -6.735724490847014 0.023184283405897493 -0.004724402203823142 -0.020944097230097054 0.049298516640753964 0.021053042001104815 8.070027762775252 3.445192003837541 -19.22771443598469 -0.011279358128787232 10.421274635277097 0.030767170032903225 -5.572674168116045 -15.665221316453072 3.2088149666762025 0.01946048569338002 -0.027864001879676588 0.023343241753360784 0.004836853699579308 4.669738195323474 -0.028825810801641184 12.49193525937472 -8.224411895675475 6.896298237024588 0.01029170250384225 46.35826907455924 -0.047955557021349036 -4.29083312214412 -14.739632756405205 -3.880891514438702 -0.004466386109174439 0.032080582911068974 0.0010368616855297881 -0.003464154786269763 -10.709975136030055 0.018832402251357464 
0.0025564907673182695 0.03614587484842149 0.004984850588196956 -0.01676515487361881 0.028390421331377914 -0.01925358269327067 6.397640267276783 1.6588535754589429 -2.4792479363008955 -0.7053261341193044 3.477460938381134 0.4072708984766777 -0.5029451363610005 -1.2800491517855934 1.7819649854298583 -0.22694119623996242 -0.5274006257114175 -0.1345263639879753 0.2224407770447422 12.929101407048444 -2.0158258381969274 0.3015360619040719 0.04892073584906105 -5.014540331193873 1.0391949422722295 -16.16074685019549 -0.4251944399370136 -11.173471150433949 3.7510448917623056 -17.093482796650548 78.11915629602981 12.0413656008049 22.372731988684524 1.2042921261605422 -2.810590250491411 111.2823778948194 4.061264026296236 0.13213585324380062 1.841679089486331 4.512529405083339 -0.13263608305813138 -1.5566540057737648 0.011761065918192511 -0.032113715161674876 -56.20369566264295 -0.03510584111664986 -0.009867488807925259 -56.21656276210886 -38.78032742494744 -0.0030374340092221776 -0.010893112138937552 -0.0033506092704833597 -0.00012024998288566134 -0.01713106002627394 -0.0270178795535505 -0.01504685947062426 -0.020776786612435597 -36.69997365091125 0.0335459394699845 -0.012248527931535547 0.002844479928621901 -0.015289403936909494 0.030677563137089834 -0.023945027635165893 -0.026715762123016174 -0.03342540468552135 -19.80757992868875 0.028627770067963083 -0.008582122483717996 -0.04746546746546415 -0.024211248243800942 -0.04073011560389233 0.02710284180391725 0.04641334339584272 -0.006330503974560932 24.047948025918178 0.008060222664612426 -0.041934496908577604 28.842754093979284 0.0050655310030033275 -0.012945051754765647 28.85300991161769 0.03755718748532207 -0.043172047813699814 11.130864036601 2.519778248020599 14.885568268778274 -72.53502163597679 22.317922063347634 -19.6156629977392 6.860131850481705 -7.103317619606198 -101.27321742006528 -5.677897080734041 -4.228144480001048 -2.6612564263892353 -0.44098414482228876 0.021611324765295523 -8.158402766709063 0.0072200945769112235 0.0179494565063261 44.61098202473453 -0.04265448355636679 -0.026952845025239605 44.575764676068594 12.501440900088653 0.00031284392598891796 -0.025234680750691164 -0.028176865203805627 -0.006979919625181376 0.03653439161131878 -0.04908669038089149 -0.04429236045878049 0.022832378146995284 11.092582941454515 -0.028379822606665023 0.007996193229763452 -0.002025644121977964 0.02909910861057118 0.035505761087537786 -0.013391100888162692 -0.015513353123422542 -0.017091840545731988 4.802822204687866 -0.045118506471244324 0.04108132916937408 0.014415460978463262 0.0019913329407089593 0.037910662112565816 0.023368481421580503 -0.010636598808552741 -0.017461653769975032 -5.581421694317475 -0.03380700701766907 0.0030072505239568063 -6.694743124271927 0.04184209553041474 0.013731797485682524 -6.722608161394176 0.004881761104247957 0.025534288602859372 -5.860725240335464e-05 0.04532663423804907 0.042381014846723325 8.053299508335995 3.5306848834252116 -19.257999558705478 0.03498105708017226 10.42856099957865 0.05235589231554845 -5.6278754526784125 -15.685669783564904 3.2165008589937742 -0.0397936297612787 -0.035343442741052264 0.040629994565728876 0.022676942016507644 4.719316670630917 0.005089500444428663 12.43332863212556 -8.269933296528265 6.868031523261697 -0.04764444534925934 46.32956659107268 0.024107222116463784 -4.35069866144546 -14.73835101923458 -3.8173630492148893 -0.039823733975000754 0.02238110358274901 0.0494692404795992 0.02920570168550903 -10.70070897947589 0.017618673407478188 
-0.023822753450089197 -0.004201884008924535 0.024252560825663176 -0.007918219104135251 -0.012631465524437968 0.005764041017023313 6.561068365466648 1.7929400970426863 -2.474147018221563 -0.6969799891102839 3.4715419727324615 0.39457592756446674 -0.5346724935274503 -1.2929029667413758 1.91283927550235 -0.21770196173177397 -0.5532381001129056 -0.14402606936337845 0.3091097635890804 13.312442341808545 -2.2532209825406646 0.270003898663844 0.1353312120019605 -5.689250241136062 1.055028602239106 -16.075422790853505 -0.4818009616863551 -11.647049483662933 3.883799707570488 -16.914679725319907 76.1219051798008 10.126584249221914 25.324949396193997 0.635839706183558 -2.7657433310688444 110.78078768614075 3.827029534760618 0.12026797114513443 2.0694226797208324 4.502595494437284 -0.09489530260971016 -1.5882263863415929 -0.021892803091834633 -0.048626222918202795 -56.201972687320584 0.02293737690410575 0.04141802074400365 -56.22655631629618 -38.74684972433615 0.025931420930511054 1.4488127706765218e-05 -0.03347935620259912 -0.014130013304843553 0.03900701850113999 -0.013838320953816438 -0.018204921552328935 -0.0007270426831798532 -36.685229385634955 0.003238887347439434 -0.0036379828468464763 0.020605564386739248 -0.009394807690446625 -0.029382432395623544 0.03247310885416632 -0.026134159213290643 -0.02590938377113884 -19.7267579143469 0.033997092048846884 0.019848785619299748 0.01480980892611724 -0.03246891484909342 -0.027322522467749057 -0.03213432070730237 0.012365909433985278 -0.037260792596132374 24.070910221307113 0.022739206487017997 -0.02984457223829501 28.882867687350505 -0.01160459663964125 0.026741959944590363 28.877034270895756 0.014968693251766661 -0.01880436280336627 11.388515579050345 2.552642380974252 14.966261901843842 -71.13705991458693 20.28490141544243 -21.865295723715125 8.124706156472497 -6.8917166154681855 -101.61573068656693 -5.336795288880266 -3.176860450049577 -3.4629030847637554 -0.5167403669828212 0.07742754547968668 -8.154896768755194 -0.03210024259870595 0.008427740043238994 44.57597143707612 0.006533787751084612 0.020526464987731682 44.54001490933266 12.495090947672468 -0.026475206832229883 -0.00015247868043713635 0.039194911924585234 -0.02243788517313941 -0.03909734236942907 -0.04123770127159042 -0.037207628408023524 0.02631370231354565 11.089007824359351 -0.04384483215814606 0.017857195223770467 -0.025693137407133623 0.014735903381861514 0.032444631123833674 0.019264455576920827 -0.020734557783609577 -0.03349563470664145 4.801651486775357 0.007430970989777382 -0.016092079831786565 -0.004407992647097771 -0.007888653265455906 -0.006172836028494801 -0.04743740339404268 0.02225596799199236 0.04684560599344471 -5.5668404076313 0.028521581260344545 0.01805072823049795 -6.77024142034954 0.003340294052211832 0.0173262194716423 -6.6981713957909035 -0.027940557921306876 -0.025814338836796943 0.005919430895980666 -0.04284121158587751 -0.02334325643768484 8.027734706301466 3.4764463234565337 -19.177716800202493 -0.020548147826200885 10.418945172676137 -0.020797871555334056 -5.655473320606896 -15.649476688103162 3.1788626814561605 -0.008347908751731813 0.01764377722381233 -0.02453393882667386 -0.00846147027071427 4.715596769692636 0.03129973563052466 12.444229877800908 -8.19949450040851 6.898617058912896 -0.0030066224234349156 46.39613786000898 0.022020209905311172 -4.293961295871463 -14.724086973198293 -3.8616123831564386 -0.020498085337111706 0.0372636457194878 -0.028012629585006298 0.022196646284746827 -10.78173564507227 -0.023030601329012197 
-0.01083763626999149 -0.029224968962614974 0.03296523691148677 0.03192453453813926 0.0341354100146817 0.039213257062194036 6.62936800038172 1.917173587987952 -2.4850256384186986 -0.6722698943541363 3.600949005422955 0.3726189288250572 -0.5403053331816186 -1.2545680858484338 2.011578223085712 -0.14762541968109216 -0.5771527505417456 -0.06810271757551388 0.33708709214850013 13.659162910505527 -2.5001773223295065 0.25184253938051665 0.2602819046801069 -6.34071975092277 1.1192470067759224 -15.940559797592703 -0.5357227288292338 -12.203062713103433 3.9949425867224964 -16.753848626343874 74.04946070733249 8.779906341457774 28.484913631888364 -0.7697667881811945 -2.781236014400427 110.2477248933427 3.883006608448476 0.15055412768872303 2.148978302918777 4.522399442648082 -0.1137708079237133 -1.63293087966449 0.0010127985993669119 -0.025302563845926287 -56.231711873654504 -0.008225268448801821 -0.028710754485543347 -56.26865003898825 -38.81367294074975 0.0002617346558665198 0.033074108893961784 0.01581538535281683 -0.02348779094794997 -0.020347354464098917 -0.037900693204082264 -0.013493709299329455 -0.012687979046117716 -36.6663382842812 0.011825327176157292 0.019214266436620768 -0.023247457078107953 0.0037396674277219316 0.02596933316665522 0.022292954345127867 -0.038200307890747784 0.03250263674443015 -19.795605468075834 -0.013685464325655 -0.006776909372826687 0.006024224736070212 0.04272886522152729 -0.00602821432717969 -0.029130824081820973 -0.001558352871046082 0.005769841534003578 24.037265970712536 -0.010197938117836213 -0.03797112130341451 28.873261327811225 -0.015283310257939697 -0.01225482415509767 28.88310303319413 0.005616330789558895 0.03118761793048054 11.807209696345112 2.6470472543771333 14.877118769030112 -69.37458723193747 18.696563344170574 -24.72063610666986 10.247546275557337 -6.864771028604971 -102.39218959485079 -5.1645250136213 -2.0867560554809 -4.144742541585963 -0.4857306250304949 0.07380363746861907 -8.122440450847026 -0.04036109424963277 -0.026245307079683023 44.55559498363686 0.01999107792642912 0.04684534827966862 44.56085118670597 12.480527017611495 -0.0012334117182846028 0.0071948621712970345 -0.03656890536865327 0.008783254447633209 -0.04272353917539947 0.0019212256810520398 -0.04812531303195557 -0.033971299175297384 11.086886486960342 0.00404897573231665 -0.00910645280620779 -0.033130410996776584 -0.01617535050113188 0.03561523921189104 0.01971395408570598 0.001574927909278369 -0.045370164671087766 4.768565149753799 0.034494186384165626 -0.03807416851161636 -0.006913319705249373 0.014548791188712332 -0.018875364561565994 0.016021845891906725 -0.005567277735200898 -0.008222439775019845 -5.558539272143957 -0.025477686310029522 0.015919648339872375 -6.67924533529153 -0.034316467346911364 -0.018663306762931677 -6.717456149947865 0.0009196257789698325 0.0011467422513444293 0.008281629284694914 -0.015462061816504918 -0.03623523077903058 8.009468398654025 3.4463535310663187 -19.238922508053346 -0.014143890745481738 10.383259148722937 0.04195209371276547 -5.603534187674184 -15.683251058086787 3.2039934371869454 -0.04628946216597276 0.0028085273676963485 -0.023937713588008468 -0.01905862916780573 4.703495850265637 0.026081669220104742 12.445764928838916 -8.198865757358684 6.891490336862312 -0.022133388510448448 46.42701412643846 0.02871090748610661 -4.310083267171362 -14.770699509752438 -3.823281939673625 0.00600319244330073 0.01801602350154437 0.03131520652895547 -0.014714866723873682 -10.755629201343448 -0.010097461226802405 
